<svg xmlns="http://www.w3.org/2000/svg" xmlns:xlink="http://www.w3.org/1999/xlink" version="1.1" x="0px" y="0px" viewBox="0 0 100 125" style="enable-background:new 0 0 100 100;" xml:space="preserve"><g><rect x="36.5" y="7.125" width="26.625" height="8.583"/><g><path d="M44.024,52.174c0,1.536,1.456,2.736,4.368,3.601v-7.536c-1.344,0.161-2.408,0.592-3.192,1.296    C44.416,50.238,44.024,51.118,44.024,52.174z"/><path d="M55.688,64.486c-0.8-0.624-1.952-1.159-3.456-1.608v8.353c1.567-0.224,2.736-0.744,3.504-1.561    c0.769-0.815,1.152-1.735,1.152-2.76C56.889,65.919,56.488,65.11,55.688,64.486z"/><path d="M75.273,25.724v-9.021l-10.967-9.62v18.642h-29.09V7.082l-10.969,9.62v9.021H1.836v39.608v3.414    c0,0.988,0.104,2.078,0.297,3.227c-0.193-0.939-0.297-1.908-0.297-2.898v6.469v3.426c0,7.844,6.107,13.949,13.951,13.949h10.156    h24.354h24.166h0.189h9.584c7.844,0,13.928-6.105,13.928-13.949V25.724H75.273z"/><path style="" d="M60.44,58.599c-0.608-0.624-1.416-1.2-2.424-1.729s-1.929-0.928-2.76-1.2    c-0.833-0.271-1.841-0.567-3.024-0.888v-8.304c2.56,0.512,4.72,1.648,6.48,3.409l3.168-4.177    c-2.593-2.496-5.809-3.952-9.648-4.368v-4.464h-3.84v4.416c-3.072,0.257-5.528,1.248-7.368,2.976    c-1.841,1.728-2.76,3.84-2.76,6.335c0,1.025,0.127,1.944,0.384,2.761c0.256,0.816,0.64,1.528,1.152,2.136    c0.511,0.608,1.056,1.137,1.632,1.584c0.576,0.449,1.288,0.856,2.136,1.225s1.624,0.656,2.328,0.863    c0.703,0.209,1.536,0.44,2.496,0.696v9.312c-3.168-0.48-5.841-1.921-8.016-4.32l-3.169,4.368c2.849,2.976,6.576,4.64,11.185,4.992    v4.319h3.84v-4.319c3.424-0.288,6.016-1.345,7.776-3.169c1.759-1.823,2.64-4.047,2.64-6.672c0-1.248-0.216-2.367-0.648-3.359    C61.568,60.03,61.048,59.223,60.44,58.599z M48.393,53.774c-2.912-0.864-4.368-2.064-4.368-3.601c0-1.056,0.392-1.936,1.176-2.64    c0.784-0.704,1.849-1.135,3.192-1.296V53.774z M55.736,67.67c-0.768,0.816-1.937,1.337-3.504,1.561v-8.353    c1.504,0.449,2.656,0.984,3.456,1.608s1.2,1.433,1.2,2.424C56.889,65.935,56.505,66.854,55.736,67.67z" fill="#FFFFFF"/></g></g><text x="0" y="115" fill="#000000" font-size="5px" font-weight="bold" font-family="'Helvetica Neue', Helvetica, Arial-Unicode, Arial, Sans-serif">Created by Mike Ashley</text><text x="0" y="120" fill="#000000" font-size="5px" font-weight="bold" font-family="'Helvetica Neue', Helvetica, Arial-Unicode, Arial, Sans-serif">from the Noun Project</text></svg>